<svg width="18" height="23" viewBox="0 0 18 23" fill="none" xmlns="http://www.w3.org/2000/svg">
<path d="M17 22.6667H1C0.734784 22.6667 0.48043 22.5473 0.292893 22.3347C0.105357 22.1222 0 21.8339 0 21.5333V1.13333C0 0.832755 0.105357 0.544487 0.292893 0.331946C0.48043 0.119404 0.734784 0 1 0H17C17.2652 0 17.5196 0.119404 17.7071 0.331946C17.8946 0.544487 18 0.832755 18 1.13333V21.5333C18 21.8339 17.8946 22.1222 17.7071 22.3347C17.5196 22.5473 17.2652 22.6667 17 22.6667ZM4 4.53333V9.06667H8V4.53333H4ZM4 11.3333V13.6H14V11.3333H4ZM4 15.8667V18.1333H14V15.8667H4ZM10 5.66667V7.93333H14V5.66667H10Z" fill="#0096FF"/>
</svg>
