<svg width="24" height="28" viewBox="0 0 24 28" fill="none" xmlns="http://www.w3.org/2000/svg">
<path d="M14 2.26666C15.83 2.26567 17.605 2.97575 19.0289 4.27847C20.4528 5.58119 21.4396 7.3978 21.8247 9.42533C22.2098 11.4529 21.9699 13.5687 21.1451 15.4201C20.3202 17.2714 18.9603 18.7463 17.292 19.5987C16.7588 20.9348 15.9475 22.1044 14.9279 23.0071C13.9082 23.9099 12.7106 24.5189 11.4377 24.7818C10.1647 25.0448 8.85452 24.954 7.61939 24.517C6.38426 24.0801 5.26106 23.3102 4.34614 22.2733C3.43121 21.2364 2.75186 19.9634 2.36634 18.5636C1.98082 17.1638 1.90065 15.6789 2.13268 14.2362C2.36472 12.7936 2.90206 11.4362 3.6986 10.2806C4.49514 9.12501 5.52711 8.20561 6.70603 7.60126C7.34017 6.01107 8.36561 4.66196 9.65937 3.71575C10.9531 2.76954 12.4603 2.26639 14 2.26666ZM10 9.06666C9.21209 9.06666 8.43188 9.24255 7.70392 9.58428C6.97597 9.92602 6.31454 10.4269 5.75738 11.0583C5.20023 11.6898 4.75828 12.4394 4.45675 13.2644C4.15522 14.0894 4.00003 14.9737 4.00003 15.8667C4.00003 16.7597 4.15522 17.6439 4.45675 18.4689C4.75828 19.2939 5.20023 20.0436 5.75738 20.675C6.31454 21.3064 6.97597 21.8073 7.70392 22.149C8.43188 22.4908 9.21209 22.6667 10 22.6667C11.5913 22.6667 13.1174 21.9502 14.2427 20.675C15.3679 19.3997 16 17.6701 16 15.8667C16 14.0632 15.3679 12.3336 14.2427 11.0583C13.1174 9.78309 11.5913 9.06666 10 9.06666ZM11 10.2V11.3333H13V13.6H9.00003C8.87508 13.5997 8.75458 13.6525 8.66224 13.7479C8.56991 13.8433 8.51244 13.9744 8.50115 14.1155C8.48986 14.2565 8.52557 14.3972 8.60125 14.5099C8.67692 14.6226 8.78708 14.699 8.91003 14.7243L9.00003 14.7333H11C11.6631 14.7333 12.299 15.0318 12.7678 15.5632C13.2366 16.0945 13.5 16.8152 13.5 17.5667C13.5 18.3181 13.2366 19.0388 12.7678 19.5701C12.299 20.1015 11.6631 20.4 11 20.4V21.5333H9.00003V20.4H7.00003V18.1333H11C11.125 18.1336 11.2455 18.0808 11.3378 17.9854C11.4301 17.89 11.4876 17.7589 11.4989 17.6179C11.5102 17.4768 11.4745 17.3361 11.3988 17.2235C11.3231 17.1108 11.213 17.0343 11.09 17.0091L11 17H9.00003C8.33698 17 7.7011 16.7015 7.23226 16.1701C6.76342 15.6388 6.50003 14.9181 6.50003 14.1667C6.50003 13.4152 6.76342 12.6945 7.23226 12.1632C7.7011 11.6318 8.33698 11.3333 9.00003 11.3333V10.2H11ZM14 4.53333C13.1527 4.53221 12.3148 4.735 11.5418 5.12829C10.7689 5.52157 10.0784 6.0964 9.51603 6.81473C10.6463 6.73697 11.7782 6.93202 12.837 7.387C13.8958 7.84198 14.8573 8.54651 15.658 9.45401C16.4586 10.3615 17.0801 11.4513 17.4815 12.6513C17.8828 13.8513 18.0548 15.1342 17.986 16.4152C18.8952 15.499 19.5372 14.2913 19.8268 12.9521C20.1165 11.6129 20.04 10.2056 19.6077 8.91675C19.1753 7.62793 18.4075 6.51852 17.406 5.73566C16.4045 4.95281 15.2166 4.53349 14 4.53333Z" fill="#9098A6"/>
</svg>
