<svg width="24" height="28" viewBox="0 0 24 28" fill="none" xmlns="http://www.w3.org/2000/svg">
<rect width="24" height="27.2" fill="white"/>
<path d="M20 24.9333H4C3.73478 24.9333 3.48043 24.8139 3.29289 24.6014C3.10536 24.3888 3 24.1006 3 23.8V3.4C3 3.09942 3.10536 2.81115 3.29289 2.59861C3.48043 2.38607 3.73478 2.26666 4 2.26666H20C20.2652 2.26666 20.5196 2.38607 20.7071 2.59861C20.8946 2.81115 21 3.09942 21 3.4V23.8C21 24.1006 20.8946 24.3888 20.7071 24.6014C20.5196 24.8139 20.2652 24.9333 20 24.9333ZM7 6.8V11.3333H11V6.8H7ZM7 13.6V15.8667H17V13.6H7ZM7 18.1333V20.4H17V18.1333H7ZM13 7.93333V10.2H17V7.93333H13Z" fill="#0096FF"/>
</svg>
