<svg width="20" height="20" viewBox="0 0 20 20" fill="none" xmlns="http://www.w3.org/2000/svg">
<path d="M2.88315 18.2514L3.3353 17.6291L2.88315 18.2514ZM1.74863 17.1168L1.12631 17.569L1.74863 17.1168ZM18.2514 17.1168L17.6291 16.6647L18.2514 17.1168ZM17.1168 18.2514L16.6647 17.6291L17.1168 18.2514ZM17.1168 1.74863L16.6647 2.37095L17.1168 1.74863ZM18.2514 2.88315L18.8737 2.43101L18.2514 2.88315ZM2.88315 1.74863L3.3353 2.37095L2.88315 1.74863ZM1.74863 2.88315L1.12631 2.43101L1.74863 2.88315ZM2.82404 18.0333L2.05547 18.0017L2.05481 18.0175V18.0333H2.82404ZM17.1698 17.9205L17.9386 17.8943L17.9381 17.8811L17.9372 17.8679L17.1698 17.9205ZM17.1795 18.2051L17.641 18.8205L17.1795 18.2051ZM13.3333 6.92308C13.3333 8.76403 11.8409 10.2564 10 10.2564V11.7949C12.6906 11.7949 14.8718 9.6137 14.8718 6.92308H13.3333ZM10 10.2564C8.15905 10.2564 6.66667 8.76403 6.66667 6.92308H5.12821C5.12821 9.6137 7.30938 11.7949 10 11.7949V10.2564ZM6.66667 6.92308C6.66667 5.08213 8.15905 3.58974 10 3.58974V2.05128C7.30938 2.05128 5.12821 4.23246 5.12821 6.92308H6.66667ZM10 3.58974C11.8409 3.58974 13.3333 5.08213 13.3333 6.92308H14.8718C14.8718 4.23246 12.6906 2.05128 10 2.05128V3.58974ZM10 18.4615C8.05993 18.4615 6.66666 18.4605 5.58774 18.3436C4.52321 18.2283 3.85632 18.0076 3.3353 17.6291L2.43101 18.8737C3.25801 19.4745 4.2266 19.7436 5.42203 19.8731C6.60305 20.0011 8.09419 20 10 20V18.4615ZM0 10C0 11.9058 -0.00105583 13.3969 0.1269 14.578C0.256416 15.7734 0.52546 16.742 1.12631 17.569L2.37095 16.6647C1.9924 16.1437 1.77175 15.4768 1.65641 14.4123C1.53952 13.3333 1.53846 11.9401 1.53846 10H0ZM18.4615 10C18.4615 11.9401 18.4605 13.3333 18.3436 14.4123C18.2283 15.4768 18.0076 16.1437 17.6291 16.6647L18.8737 17.569C19.4745 16.742 19.7436 15.7734 19.8731 14.578C20.0011 13.3969 20 11.9058 20 10H18.4615ZM10 20C11.9058 20 13.3969 20.0011 14.578 19.8731C15.7734 19.7436 16.742 19.4745 17.569 18.8737L16.6647 17.6291C16.1437 18.0076 15.4768 18.2283 14.4123 18.3436C13.3333 18.4605 11.9401 18.4615 10 18.4615V20ZM10 1.53846C11.9401 1.53846 13.3333 1.53952 14.4123 1.65641C15.4768 1.77175 16.1437 1.9924 16.6647 2.37095L17.569 1.12631C16.742 0.52546 15.7734 0.256416 14.578 0.1269C13.3969 -0.00105583 11.9058 0 10 0V1.53846ZM20 10C20 8.0942 20.0011 6.60305 19.8731 5.42203C19.7436 4.2266 19.4745 3.25801 18.8737 2.43101L17.6291 3.3353C18.0076 3.85632 18.2283 4.52321 18.3436 5.58774C18.4605 6.66666 18.4615 8.05993 18.4615 10H20ZM16.6647 2.37095C17.0348 2.63981 17.3602 2.96524 17.6291 3.3353L18.8737 2.43101C18.5099 1.93035 18.0696 1.49006 17.569 1.12631L16.6647 2.37095ZM10 0C8.09419 0 6.60305 -0.00105583 5.42203 0.1269C4.2266 0.256416 3.25801 0.52546 2.43101 1.12631L3.3353 2.37095C3.85632 1.9924 4.52321 1.77175 5.58774 1.65641C6.66666 1.53952 8.05993 1.53846 10 1.53846V0ZM1.53846 10C1.53846 8.05993 1.53952 6.66666 1.65641 5.58774C1.77175 4.52321 1.9924 3.85633 2.37095 3.3353L1.12631 2.43101C0.52546 3.25801 0.256416 4.2266 0.1269 5.42203C-0.00105583 6.60305 0 8.0942 0 10H1.53846ZM2.43101 1.12631C1.93035 1.49006 1.49006 1.93035 1.12631 2.43101L2.37095 3.3353C2.63981 2.96524 2.96524 2.63981 3.33529 2.37095L2.43101 1.12631ZM6.92308 14.8718H13.0769V13.3333H6.92308V14.8718ZM6.92308 13.3333C4.30061 13.3333 2.16243 15.4051 2.05547 18.0017L3.59262 18.065C3.66577 16.2893 5.12908 14.8718 6.92308 14.8718V13.3333ZM3.3353 17.6291C3.31846 17.6168 3.30171 17.6045 3.28505 17.592L2.36304 18.8236C2.38556 18.8404 2.40822 18.8571 2.43101 18.8737L3.3353 17.6291ZM3.28505 17.592C2.93574 17.3305 2.62758 17.0179 2.37095 16.6647L1.12631 17.569C1.47351 18.0469 1.89044 18.4697 2.36304 18.8236L3.28505 17.592ZM2.05481 18.0333V18.2078H3.59328V18.0333H2.05481ZM13.0769 14.8718C14.8398 14.8718 16.2836 16.2408 16.4023 17.9731L17.9372 17.8679C17.7636 15.3342 15.6542 13.3333 13.0769 13.3333V14.8718ZM17.6291 16.6647C17.3732 17.0169 17.066 17.3287 16.7179 17.5897L17.641 18.8205C18.112 18.4673 18.5275 18.0455 18.8737 17.569L17.6291 16.6647ZM16.7179 17.5897C16.7003 17.603 16.6826 17.6161 16.6647 17.6291L17.569 18.8737C17.5931 18.8561 17.6172 18.8384 17.641 18.8205L16.7179 17.5897ZM16.401 17.9468L16.4107 18.2314L17.9483 18.1789L17.9386 17.8943L16.401 17.9468Z" fill="#9098A6"/>
</svg>
