<svg width="24" height="28" viewBox="0 0 24 28" fill="none" xmlns="http://www.w3.org/2000/svg">
<g clip-path="url(#clip0_0_206)">
<path d="M17 2.26667H20C20.2652 2.26667 20.5196 2.38607 20.7071 2.59861C20.8946 2.81115 21 3.09942 21 3.4V23.8C21 24.1006 20.8946 24.3888 20.7071 24.6014C20.5196 24.8139 20.2652 24.9333 20 24.9333H4C3.73478 24.9333 3.48043 24.8139 3.29289 24.6014C3.10536 24.3888 3 24.1006 3 23.8V3.4C3 3.09942 3.10536 2.81115 3.29289 2.59861C3.48043 2.38607 3.73478 2.26667 4 2.26667H7V0H9V2.26667H15V0H17V2.26667ZM7 9.06667V11.3333H17V9.06667H7ZM7 13.6V15.8667H17V13.6H7Z" fill="#0096FF"/>
</g>
<defs>
<clipPath id="clip0_0_206">
<rect width="24" height="27.2" fill="white"/>
</clipPath>
</defs>
</svg>
