<svg width="24" height="28" viewBox="0 0 24 28" fill="none" xmlns="http://www.w3.org/2000/svg">
<path d="M21 7.65793L19 9.9246V4.53333H10V10.2H5.00002V22.6667H19V19.5421L21 17.2754V23.8091C20.9998 24.1073 20.895 24.3933 20.7088 24.6041C20.5226 24.8149 20.2702 24.9333 20.007 24.9333H3.99302C3.8617 24.9323 3.73185 24.9019 3.61087 24.844C3.48989 24.7861 3.38017 24.7018 3.28796 24.5958C3.19575 24.4898 3.12286 24.3643 3.07346 24.2264C3.02406 24.0885 2.9991 23.9409 3.00002 23.7921V9.06666L9.00303 2.26666H19.998C20.55 2.26666 21 2.78233 21 3.39093V7.65793ZM21.778 9.98126L23.192 11.5849L15.414 20.4L13.998 20.3977L14 18.7975L21.778 9.9824V9.98126Z" fill="#9098A6"/>
</svg>
