<svg width="15" height="8" viewBox="0 0 15 8" fill="none" xmlns="http://www.w3.org/2000/svg">
<path d="M7.21499 2.06437C7.40425 2.03915 7.59575 2.03915 7.78501 2.06437C8.08641 2.10453 8.42296 2.25545 8.94691 2.69535C9.48629 3.14822 10.1229 3.81749 11.0478 4.79317L13.3269 7.19722C13.7073 7.59839 14.3266 7.60128 14.7104 7.20367C15.0941 6.80606 15.0969 6.15851 14.7166 5.75733L12.3964 3.30996C11.5226 2.38818 10.8084 1.63481 10.172 1.10053C9.51028 0.544947 8.83862 0.142766 8.03238 0.0353304C7.67887 -0.0117768 7.32113 -0.0117768 6.96761 0.0353304C6.16138 0.142766 5.48972 0.544947 4.82799 1.10053C4.19163 1.63482 3.47744 2.38819 2.6036 3.30998L0.283447 5.75733C-0.0968796 6.15851 -0.0941162 6.80606 0.289619 7.20367C0.673354 7.60128 1.29275 7.59839 1.67308 7.19722L3.95217 4.79317C4.87713 3.8175 5.51371 3.14822 6.05309 2.69536C6.57704 2.25545 6.91359 2.10453 7.21499 2.06437Z" fill="white"/>
</svg>
