<svg width="24" height="28" viewBox="0 0 24 28" fill="none" xmlns="http://www.w3.org/2000/svg">
<path d="M14 2.26666C15.8299 2.26567 17.6049 2.97575 19.0288 4.27847C20.4527 5.58119 21.4395 7.3978 21.8246 9.42533C22.2097 11.4529 21.9699 13.5687 21.145 15.4201C20.3202 17.2714 18.9602 18.7463 17.292 19.5987C16.7587 20.9348 15.9475 22.1044 14.9278 23.0071C13.9082 23.9099 12.7105 24.5189 11.4376 24.7818C10.1647 25.0448 8.85446 24.954 7.61933 24.517C6.3842 24.0801 5.261 23.3102 4.34608 22.2733C3.43115 21.2364 2.7518 19.9634 2.36628 18.5636C1.98076 17.1638 1.90058 15.6789 2.13262 14.2362C2.36466 12.7936 2.90199 11.4362 3.69854 10.2806C4.49508 9.12501 5.52705 8.20561 6.70596 7.60126C7.34011 6.01107 8.36555 4.66196 9.65931 3.71575C10.9531 2.76954 12.4602 2.26639 14 2.26666ZM11 10.2H8.99996V11.3333C8.35008 11.3315 7.72512 11.6166 7.25755 12.1282C6.78998 12.6397 6.51655 13.3375 6.49523 14.0737C6.4739 14.8098 6.70635 15.5264 7.14331 16.0717C7.58026 16.6169 8.18737 16.9478 8.83596 16.9943L8.99996 17H11L11.09 17.0091C11.2052 17.0327 11.3095 17.1015 11.3846 17.2034C11.4597 17.3053 11.5009 17.4339 11.5009 17.5667C11.5009 17.6994 11.4597 17.828 11.3846 17.9299C11.3095 18.0318 11.2052 18.1006 11.09 18.1243L11 18.1333H6.99996V20.4H8.99996V21.5333H11V20.4C11.6498 20.4018 12.2748 20.1167 12.7424 19.6051C13.2099 19.0936 13.4834 18.3958 13.5047 17.6596C13.526 16.9235 13.2936 16.2069 12.8566 15.6617C12.4197 15.1165 11.8126 14.7855 11.164 14.739L11 14.7333H8.99996L8.90996 14.7243C8.79468 14.7006 8.69039 14.6318 8.61529 14.5299C8.54019 14.428 8.49905 14.2994 8.49905 14.1667C8.49905 14.0339 8.54019 13.9053 8.61529 13.8034C8.69039 13.7015 8.79468 13.6327 8.90996 13.6091L8.99996 13.6H13V11.3333H11V10.2ZM14 4.53333C13.1526 4.53221 12.3148 4.735 11.5418 5.12829C10.7688 5.52157 10.0783 6.0964 9.51596 6.81473C10.6462 6.73697 11.7782 6.93202 12.837 7.387C13.8958 7.84198 14.8573 8.54651 15.6579 9.45401C16.4586 10.3615 17.0801 11.4513 17.4814 12.6513C17.8827 13.8513 18.0547 15.1342 17.986 16.4152C18.8952 15.499 19.5372 14.2913 19.8268 12.9521C20.1164 11.6129 20.04 10.2056 19.6076 8.91675C19.1752 7.62793 18.4074 6.51852 17.4059 5.73566C16.4044 4.95281 15.2166 4.53349 14 4.53333Z" fill="#0096FF"/>
</svg>
