<svg width="20" height="20" viewBox="0 0 20 20" fill="none" xmlns="http://www.w3.org/2000/svg">
<path d="M4.22324 5.82455L4.80728 5.32394L4.22324 5.82455ZM16.6559 5.82454L17.2399 6.32515L16.6559 5.82454ZM2.52747 3.84615L1.94343 4.34676H1.94343L2.52747 3.84615ZM18.3516 3.84615L17.7676 3.34554V3.34555L18.3516 3.84615ZM9.56044 18.4615C9.13561 18.4615 8.79121 18.8059 8.79121 19.2308C8.79121 19.6556 9.13561 20 9.56044 20V18.4615ZM18.3913 17.1168L17.7383 16.7102L18.3913 17.1168ZM17.4188 18.2514L16.9215 17.6646L17.4188 18.2514ZM17.4188 1.74863L17.9162 1.16184L17.9162 1.16184L17.4188 1.74863ZM18.3913 2.88315L17.7383 3.28979V3.28979L18.3913 2.88315ZM3.46028 1.74863L2.9629 1.16184L2.9629 1.16184L3.46028 1.74863ZM0.879121 10C0.879121 10.4248 1.22352 10.7692 1.64835 10.7692C2.07319 10.7692 2.41758 10.4248 2.41758 10H0.879121ZM2.48784 2.88315L1.83487 2.47652H1.83487L2.48784 2.88315ZM0.769231 16.4103C0.344396 16.4103 0 16.7547 0 17.1795C0 17.6043 0.344396 17.9487 0.769231 17.9487V16.4103ZM6.04396 17.9487C6.46879 17.9487 6.81319 17.6043 6.81319 17.1795C6.81319 16.7547 6.46879 16.4103 6.04396 16.4103V17.9487ZM0.769231 13.3333C0.344396 13.3333 0 13.6777 0 14.1026C0 14.5274 0.344396 14.8718 0.769231 14.8718V13.3333ZM3.40659 14.8718C3.83143 14.8718 4.17582 14.5274 4.17582 14.1026C4.17582 13.6777 3.83143 13.3333 3.40659 13.3333V14.8718ZM2.19431 3.45747L1.48334 3.16382L2.19431 3.45747ZM4.80728 5.32394L3.21817 3.46998L2.05009 4.4712L3.63919 6.32515L4.80728 5.32394ZM17.6609 3.46998L16.0718 5.32394L17.2399 6.32515L18.829 4.4712L17.6609 3.46998ZM3.63919 6.32515C5.08966 8.01736 6.22773 9.34771 7.23608 10.2453C8.25561 11.1528 9.25438 11.722 10.4396 11.722V10.1835C9.80403 10.1835 9.15983 9.89801 8.25898 9.09613C7.34694 8.28429 6.28722 7.05053 4.80728 5.32394L3.63919 6.32515ZM16.0718 5.32394C14.5919 7.05053 13.5322 8.28429 12.6201 9.09613C11.7193 9.89801 11.0751 10.1835 10.4396 10.1835V11.722C11.6247 11.722 12.6235 11.1528 13.643 10.2453C14.6514 9.34771 15.7895 8.01736 17.2399 6.32515L16.0718 5.32394ZM4.80728 5.32394L3.11152 3.34555L1.94343 4.34676L3.63919 6.32515L4.80728 5.32394ZM17.7676 3.34555L16.0718 5.32394L17.2399 6.32515L18.9357 4.34676L17.7676 3.34555ZM9.56044 1.53846H11.3187V0H9.56044V1.53846ZM11.3187 18.4615H9.56044V20H11.3187V18.4615ZM18.4615 10C18.4615 11.9377 18.4608 13.3379 18.3599 14.424C18.2598 15.5016 18.067 16.1824 17.7383 16.7102L19.0443 17.5235C19.5551 16.7032 19.782 15.7486 19.8918 14.5662C20.0008 13.3924 20 11.9082 20 10H18.4615ZM11.3187 20C12.947 20 14.2402 20.0014 15.2681 19.8715C16.3186 19.7387 17.1829 19.4598 17.9162 18.8382L16.9215 17.6646C16.4993 18.0224 15.9618 18.2331 15.0752 18.3452C14.166 18.4601 12.9868 18.4615 11.3187 18.4615V20ZM17.7383 16.7102C17.5073 17.0811 17.2308 17.4023 16.9215 17.6646L17.9162 18.8382C18.3532 18.4678 18.733 18.0233 19.0443 17.5235L17.7383 16.7102ZM11.3187 1.53846C12.9868 1.53846 14.166 1.53989 15.0752 1.65481C15.9618 1.76688 16.4993 1.97762 16.9215 2.33542L17.9162 1.16184C17.1829 0.540245 16.3186 0.261279 15.2681 0.128497C14.2402 -0.00143082 12.947 0 11.3187 0V1.53846ZM16.9215 2.33542C17.2308 2.59766 17.5073 2.91889 17.7383 3.28979L19.0443 2.47652C18.733 1.9767 18.3532 1.53222 17.9162 1.16184L16.9215 2.33542ZM9.56044 0C7.93213 0 6.63893 -0.00143082 5.61102 0.128497C4.56054 0.261279 3.69623 0.540245 2.9629 1.16184L3.95767 2.33542C4.37979 1.97762 4.91733 1.76688 5.80395 1.65481C6.71313 1.53989 7.89228 1.53846 9.56044 1.53846V0ZM2.9629 1.16184C2.52595 1.53222 2.14613 1.9767 1.83487 2.47652L3.1408 3.28979C3.37178 2.91889 3.6483 2.59766 3.95767 2.33542L2.9629 1.16184ZM0.769231 17.9487H6.04396V16.4103H0.769231V17.9487ZM0.769231 14.8718H3.40659V13.3333H0.769231V14.8718ZM2.41758 10C2.41758 8.32447 2.41795 7.04801 2.48422 6.02462C2.55049 5.00124 2.67987 4.29688 2.90529 3.75111L1.48334 3.16382C1.16279 3.93992 1.01919 4.8408 0.948974 5.92521C0.878753 7.00961 0.879121 8.34348 0.879121 10H2.41758ZM2.90529 3.75111C2.97407 3.58457 3.05212 3.43219 3.1408 3.28979L1.83487 2.47652C1.69923 2.69432 1.58293 2.92268 1.48334 3.16382L2.90529 3.75111ZM3.11152 3.34555L2.77836 2.95686L1.61027 3.95807L1.94343 4.34676L3.11152 3.34555ZM20 10C20 8.34348 20.0004 7.00961 19.9301 5.92521C19.8599 4.8408 19.7163 3.93992 19.3958 3.16382L17.9738 3.75111C18.1992 4.29688 18.3286 5.00124 18.3949 6.02462C18.4612 7.04801 18.4615 8.32447 18.4615 10H20ZM19.3958 3.16382C19.2962 2.92268 19.1799 2.69433 19.0443 2.47652L17.7383 3.28979C17.827 3.43219 17.905 3.58456 17.9738 3.75111L19.3958 3.16382ZM18.9357 4.34676L19.2689 3.95807L18.1008 2.95686L17.7676 3.34554L18.9357 4.34676Z" fill="#9098A6"/>
</svg>
