<svg width="24" height="28" viewBox="0 0 24 28" fill="none" xmlns="http://www.w3.org/2000/svg">
<path d="M21 22.6667C21 22.9672 20.8946 23.2555 20.7071 23.4681C20.5196 23.6806 20.2652 23.8 20 23.8H4C3.73478 23.8 3.48043 23.6806 3.29289 23.4681C3.10536 23.2555 3 22.9672 3 22.6667V10.7553C2.99989 10.5826 3.03462 10.4122 3.10152 10.257C3.16841 10.1018 3.26572 9.96604 3.386 9.86L11.386 2.8084C11.5615 2.65364 11.7776 2.56961 12 2.56961C12.2224 2.56961 12.4385 2.65364 12.614 2.8084L20.614 9.86C20.7343 9.96604 20.8316 10.1018 20.8985 10.257C20.9654 10.4122 21.0001 10.5826 21 10.7553V22.6667ZM19 21.5333V11.3084L12 5.13853L5 11.3084V21.5333H19Z" fill="#0096FF"/>
</svg>
