<svg width="20" height="20" viewBox="0 0 20 20" fill="none" xmlns="http://www.w3.org/2000/svg">
<path d="M4.31277 19.0048L4.52867 18.2665L4.31277 19.0048ZM1.02028 16.0415L1.7438 15.7803L1.02028 16.0415ZM18.9797 16.0415L18.2562 15.7803L18.9797 16.0415ZM15.6872 19.0048L15.4713 18.2665L15.6872 19.0048ZM15.6872 6.53354L15.4713 7.27185L15.6872 6.53354ZM18.9797 9.49678L18.2562 9.75799L18.9797 9.49678ZM4.31277 6.53354L4.52867 7.27185L4.31277 6.53354ZM1.02028 9.49678L1.7438 9.75799L1.02028 9.49678ZM9.23077 16.4614C9.23077 16.8863 9.57517 17.2307 10 17.2307C10.4248 17.2307 10.7692 16.8863 10.7692 16.4614H9.23077ZM7.94873 7.07688H12.0513V5.53843H7.94873V7.07688ZM12.0513 18.4614H7.94873V19.9999H12.0513V18.4614ZM7.94873 18.4614C5.98519 18.4614 5.16864 18.4536 4.52867 18.2665L4.09687 19.7431C5.00184 20.0077 6.09428 19.9999 7.94873 19.9999V18.4614ZM6.25998e-05 12.7692C6.25998e-05 14.4217 -0.011398 15.4491 0.29676 16.3027L1.7438 15.7803C1.54998 15.2434 1.53851 14.5528 1.53851 12.7692H6.25998e-05ZM4.52867 18.2665C3.17875 17.8717 2.15944 16.9316 1.7438 15.7803L0.29676 16.3027C0.895656 17.9616 2.32436 19.2247 4.09687 19.7431L4.52867 18.2665ZM18.4615 12.7692C18.4615 14.5528 18.45 15.2434 18.2562 15.7803L19.7032 16.3027C20.0114 15.4491 19.9999 14.4217 19.9999 12.7692H18.4615ZM12.0513 19.9999C13.9057 19.9999 14.9982 20.0077 15.9031 19.7431L15.4713 18.2665C14.8314 18.4536 14.0148 18.4614 12.0513 18.4614V19.9999ZM18.2562 15.7803C17.8406 16.9316 16.8212 17.8717 15.4713 18.2665L15.9031 19.7431C17.6756 19.2247 19.1043 17.9616 19.7032 16.3027L18.2562 15.7803ZM19.9999 12.7692C19.9999 11.1166 20.0114 10.0892 19.7032 9.23558L18.2562 9.75799C18.45 10.2949 18.4615 10.9855 18.4615 12.7692H19.9999ZM15.4713 7.27185C16.8212 7.6666 17.8406 8.6067 18.2562 9.75799L19.7032 9.23558C19.1043 7.57669 17.6756 6.31357 15.9031 5.79524L15.4713 7.27185ZM1.53851 12.7692C1.53851 10.9855 1.54998 10.2949 1.7438 9.75799L0.29676 9.23558C-0.011398 10.0892 6.25998e-05 11.1166 6.25998e-05 12.7692H1.53851ZM4.09687 5.79524C2.32436 6.31357 0.895656 7.57669 0.29676 9.23558L1.7438 9.75799C2.15944 8.6067 3.17875 7.6666 4.52867 7.27185L4.09687 5.79524ZM14.3589 5.38458V6.30765H15.8974V5.38458H14.3589ZM5.64105 6.30765V5.38458H4.1026V6.30765H5.64105ZM10 1.53845C12.4856 1.53845 14.3589 3.33465 14.3589 5.38458H15.8974C15.8974 2.33653 13.1788 0 10 0V1.53845ZM10 0C6.8212 0 4.1026 2.33653 4.1026 5.38458H5.64105C5.64105 3.33465 7.51438 1.53845 10 1.53845V0ZM9.23077 12.7692V16.4614H10.7692V12.7692H9.23077ZM7.1795 10.923C7.1795 12.4417 8.52052 13.5384 10 13.5384V11.9999C9.21371 11.9999 8.71796 11.4435 8.71796 10.923H7.1795ZM10 13.5384C11.4795 13.5384 12.8205 12.4417 12.8205 10.923H11.282C11.282 11.4435 10.7863 11.9999 10 11.9999V13.5384ZM12.8205 10.923C12.8205 9.40435 11.4795 8.30764 10 8.30764V9.84609C10.7863 9.84609 11.282 10.4025 11.282 10.923H12.8205ZM10 8.30764C8.52052 8.30764 7.1795 9.40435 7.1795 10.923H8.71796C8.71796 10.4025 9.21371 9.84609 10 9.84609V8.30764ZM7.94873 5.53843C6.49808 5.53843 5.52056 5.53624 4.75651 5.65209L4.98714 7.17315C5.6077 7.07906 6.44215 7.07688 7.94873 7.07688V5.53843ZM4.75651 5.65209C4.52603 5.68703 4.30854 5.73334 4.09687 5.79524L4.52867 7.27185C4.6653 7.2319 4.81462 7.19931 4.98714 7.17315L4.75651 5.65209ZM4.1026 6.30765V6.41262H5.64105V6.30765H4.1026ZM12.0513 7.07688C13.5579 7.07688 14.3923 7.07906 15.0129 7.17315L15.2435 5.65209C14.4794 5.53624 13.5019 5.53843 12.0513 5.53843V7.07688ZM15.0129 7.17315C15.1854 7.19931 15.3347 7.2319 15.4713 7.27185L15.9031 5.79524C15.6915 5.73334 15.474 5.68703 15.2435 5.65209L15.0129 7.17315ZM14.3589 6.30765V6.41262H15.8974V6.30765H14.3589Z" fill="#9098A6"/>
</svg>
